<svg id="a6779e3b-423c-47de-a1ea-d8abb2245cc2" data-name="Layer 1" xmlns="http://www.w3.org/2000/svg" viewBox="0 0 30 28"><title>linkicon</title><path d="M2.19,28A2.25,2.25,0,0,1,0,25.69V5.9A2.25,2.25,0,0,1,2.19,3.6H18a.89.89,0,0,1,.84.59,1,1,0,0,1-.2,1l-.85.9a.88.88,0,0,1-.64.28H2.67V25.19H20.5v-8.5a1,1,0,0,1,.26-.68l.86-.9a.85.85,0,0,1,.63-.28.93.93,0,0,1,.92,1v9.9A2.25,2.25,0,0,1,21,28Zm10.19-7.21a.88.88,0,0,1-.65-.28l-1.2-1.27a1,1,0,0,1,0-1.35l13.26-14L21.62,1.63a1,1,0,0,1-.2-1A.91.91,0,0,1,22.26,0h6.83A.94.94,0,0,1,30,1V8.15a.93.93,0,0,1-.92,1,.87.87,0,0,1-.63-.28L26.28,6.54,13,20.51A.88.88,0,0,1,12.38,20.79Z"/></svg>